<?xml version="1.0" standalone="no"?>
<!DOCTYPE svg PUBLIC "-//W3C//DTD SVG 20010904//EN"
 "http://www.w3.org/TR/2001/REC-SVG-20010904/DTD/svg10.dtd">
<svg version="1.0" xmlns="http://www.w3.org/2000/svg"
 width="100.000000pt" height="100.000000pt" viewBox="0 0 100.000000 100.000000"
 preserveAspectRatio="xMidYMid meet">
<metadata>
Created by potrace 1.11, written by Peter Selinger 2001-2013
</metadata>
<g transform="translate(0.000000,100.000000) scale(0.100000,-0.100000)"
fill="#000000" stroke="none">
<path d="M112 928 c-16 -16 -15 -43 2 -57 8 -7 24 -39 35 -72 l20 -59 -22 -1
c-12 -1 -33 0 -46 1 -16 1 -35 -11 -62 -40 l-39 -42 0 -299 0 -299 500 0 499
0 1 299 0 300 -48 40 c-42 37 -52 41 -100 41 -50 0 -53 1 -47 21 10 29 43 101
58 122 15 22 -1 51 -31 55 -20 3 -50 -33 -38 -46 5 -5 -35 -82 -56 -107 -5 -5
-14 -18 -21 -28 -11 -16 -32 -18 -236 -18 -123 0 -225 1 -226 3 -23 26 -83
141 -79 152 6 15 -21 46 -40 46 -6 0 -17 -5 -24 -12z"/>
</g>
</svg>
