<?xml version="1.0" encoding="utf-8"?>
<!-- Generator: Adobe Illustrator 18.1.0, SVG Export Plug-In . SVG Version: 6.00 Build 0)  -->
<svg version="1.1" id="Layer_1" xmlns="http://www.w3.org/2000/svg" xmlns:xlink="http://www.w3.org/1999/xlink" x="0px" y="0px"
	 viewBox="0 0 103.5 37" enable-background="new 0 0 103.5 37" xml:space="preserve">
<g>
	<g>
		<path fill="#FFFFFF" d="M32.3,0.3C22.1,7.7,11.6,14.6,0.7,21c-1,0.6-1,2,0,2.6c9.9,6.1,20.6,10.5,32,13c1.9,0.4,2.7-2.5,0.8-2.9
			C22.4,31.3,11.9,27,2.2,21c0,0.9,0,1.7,0,2.6c10.9-6.4,21.4-13.3,31.6-20.8C35.4,1.7,33.9-0.9,32.3,0.3L32.3,0.3z"/>
	</g>
</g>
<g>
	<g>
		<path fill="#FFFFFF" d="M59.1,1.9c-6.1,10.9-12.2,21.9-18.3,32.8c-0.9,1.7,1.6,3.2,2.6,1.5c6.1-10.9,12.2-21.9,18.3-32.8
			C62.6,1.7,60,0.2,59.1,1.9L59.1,1.9z"/>
	</g>
</g>
<g>
	<g>
		<path fill="#FFFFFF" d="M72.2,5c4.7,2.4,9.5,4.8,14.2,7.2c1.8,0.9,3.6,1.8,5.3,2.7c1.3,0.7,6.5,2.3,7.1,3.6
			c1.9,3.8-7.7,7-10.4,8.4c-4.6,2.4-9.1,4.8-13.7,7.2c-1.7,0.9-0.2,3.5,1.5,2.6c6.3-3.3,12.6-6.6,18.9-9.9c2.6-1.4,8.8-3.2,8.4-7.2
			c-0.4-4-7.5-5.9-10.3-7.3c-6.5-3.3-13-6.6-19.6-10C72,1.5,70.5,4.1,72.2,5L72.2,5z"/>
	</g>
</g>
</svg>
