<?xml version="1.0" encoding="utf-8"?>
<!-- Generator: Adobe Illustrator 18.1.0, SVG Export Plug-In . SVG Version: 6.00 Build 0)  -->
<svg version="1.1" id="Layer_1" xmlns="http://www.w3.org/2000/svg" xmlns:xlink="http://www.w3.org/1999/xlink" x="0px" y="0px"
	 viewBox="0 0 95.3 110.9" enable-background="new 0 0 95.3 110.9" xml:space="preserve">
<g>
	<path fill-rule="evenodd" clip-rule="evenodd" fill="#FFFFFF" d="M39,86c-7.1,4.3-12.6,7.3-17.7,10.9c-5.2,3.6-10,7.8-15.1,11.6
		c-1.3,1-2.9,1.9-4.5,2.4c-1.2,0.4-2.2-0.4-1.6-1.8c0.6-1.4,1.4-2.8,2.1-4.2c0.5-1,1.5-1.8,0.1-2.9c-0.3-0.2-0.2-1.1,0-1.6
		c1.9-5.3,4-10.5,5.9-15.8c1.1-3,1.8-6.2,3.1-9.2c0.8-1.7,2.5-3,3.7-4.5c2.7-3.5,5.3-7.1,8-10.7c3.7-4.9,7.2-9.9,11-14.7
		c5.7-7.2,11.6-14.3,17.5-21.5c0.2-0.3,0.8-0.7,0.7-0.9c-1.3-4.1,3.1-4.2,4.5-6.4c1.7-2.8,4.6-4.8,6-7.7c1-2.1,2.5-3.1,4.1-4.3
		c0.8-0.6,1.1-1.9,1.9-2.3c1.9-1,3.9-1.7,6-2.4c0.4-0.1,1.1,0.3,1.6,0.6c2.4,1.8,4.7,3.6,7,5.4c3.1,2.4,6.3,4.6,9.4,7
		c3.2,2.5,3.2,3.1,0.7,6.3c-3,3.8-5.9,7.6-9,11.4c-4.8,5.8-9.7,11.6-14.6,17.4c-3.2,3.9-6.5,7.8-9.7,11.7
		c-4.9,5.9-9.7,11.8-14.6,17.8C43,80.9,40.4,84.2,39,86z M24.7,80.6c0.7,0.6,1.1,1.1,1.6,1.4c1.7,1.2,4.8,1.6,5.8,0.5
		c3-3.3,6.1-6.4,8.8-9.9c4.2-5.3,8-10.9,12-16.3c4.7-6.4,9.4-12.8,14.2-19.2c2.9-3.8,2-4.5-1.6-6.4c-0.7-0.3-2.1,0-2.7,0.5
		C61.1,33,59.6,35,58.1,37c-4.5,6-9,12-13.6,18c-1.9,2.5-3.9,5-5.8,7.5c-3.2,4.1-6.3,8.3-9.5,12.4C27.8,76.8,26.2,78.7,24.7,80.6z
		 M31.9,87.3c-1.3-0.4-2.3-0.6-3-1.1c-4-2.7-8-5.5-12-8.3c-2.3-1.6-3.7-1.2-4.6,1.4c-0.9,2.6-1.9,5.2-2.9,7.8
		c-1.4,3.7-2.9,7.3-4.2,11c-0.3,0.9-0.6,1.8,0.7,2.7c2.8,2,4.7,1.9,7.9-0.8c1.5-1.3,3-2.5,4.7-3.5c3.7-2.3,7.4-4.5,11.1-6.9
		C30.4,89.1,31,88.2,31.9,87.3z M19,76c3.7,3.7,3.9,3.8,7.2,0.4c2.6-2.7,4.9-5.7,7.2-8.7c4.5-5.7,9-11.5,13.4-17.4
		c5-6.6,9.9-13.4,14.8-20.1c0.7-0.9,1.4-1.8,0.1-2.6c-1.2-0.8-2.3-0.9-3.4,0.4c-4.5,5.8-8.9,11.5-13.5,17.2
		c-2.7,3.3-5.5,6.5-8.2,9.8c-4.8,5.5-9.6,11-14.4,16.6C21,72.9,20.1,74.4,19,76z M16,73.2c0.1,0.2,0.3,0.5,0.4,0.7
		c0.7-0.1,1.7,0,2.2-0.4c1-0.8,1.7-1.9,2.5-2.8c3.5-4,7-8,10.5-11.9c2.2-2.5,4.5-4.8,6.6-7.3c4-5.1,7.9-10.2,11.8-15.4
		c2.4-3.2,4.8-6.4,7.3-9.5c0.9-1.1,0.9-2-0.3-2.6c-1-0.5-2.1-1.9-3.5,0c-2.1,2.9-4.5,5.7-6.8,8.5c-5.7,7-11.5,14-17.1,21.1
		C26.2,58,23.1,62.5,20,67C18.6,69,17.3,71.2,16,73.2z M76,37.6c-1.5-1.1-2.6-2.4-3.9-2.8c-0.5-0.2-1.6,1.7-2.4,2.6
		c-0.2,0.2-0.3,0.3-0.4,0.5c-3.9,4.9-7.9,9.7-11.7,14.6c-3.2,4.3-6.1,8.8-9.4,13c-4.3,5.4-8.8,10.6-13.2,16c-0.7,0.9-1,2.1-1.5,3.1
		c1.4-0.1,2.8-0.2,4.1-0.4c0.5-0.1,0.9-0.7,1.3-1.2c3-3.7,6-7.4,9.1-11.1c2.1-2.5,4.4-4.9,6.5-7.5c2.7-3.3,5.2-6.7,7.9-10
		c4.3-5.2,8.8-10.2,13.2-15.4C75.9,38.7,75.9,38.1,76,37.6z M59.7,17.6c0.9,0.9,1.3,1.5,1.9,1.8c3.3,1.8,6,4.6,9.7,6
		c2.8,1.1,5.2,3.3,7.7,5c1.9,1.3,3.3,1.1,4.6-0.7c0.7-1,1.5-1.9,2.2-2.8c1.5-1.7,1.3-2.8-0.5-4.1c-5.8-4.2-11.5-8.4-17.3-12.6
		c-1.3-0.9-2.5-1.4-3.7,0.2c-1.4,1.7-2.9,3.2-4.2,5C59.7,16.1,59.8,17.1,59.7,17.6z M92.4,16.3c-1.8-1.5-3.3-2.7-4.8-3.9
		c-2.5-2-5.1-3.8-7.4-5.9C75.7,2.4,73.4,2,69.3,4.8c-1.9,1.3-2,2.6-0.2,3.9c3.2,2.3,6.5,4.5,9.7,6.8c1.4,1,2.7,2,4.1,2.9
		c1.9,1.3,3.8,2.5,5.8,3.7c0.2,0.1,0.9-0.1,1.1-0.4c0.7-0.9,1.5-1.9,2-3C92.2,18.1,92.2,17.2,92.4,16.3z M79.8,34.3
		c-4.3-3-8.2-5.7-12.1-8.5c-2.1,2.7-2.1,2.8,0.4,4.4c1.2,0.8,3,1,3.9,2c1.8,2.1,4.2,2.1,6.5,2.7C78.8,35.1,79.4,34.5,79.8,34.3z
		 M1.6,108.7c2.5,0,4.2-1.8,5.3-5.3c-0.9,0.1-2.1-0.2-2.4,0.2C3.4,105.1,2.7,106.8,1.6,108.7z M55.7,20.9c1.5,0.8,2.7,1.5,4,2
		c0.3,0.1,1.4-0.8,1.4-1C60.8,20.4,57.1,19.5,55.7,20.9z M65.5,25.4c0.1-0.5,0.1-0.9,0.2-1.4c-1-0.2-2-0.5-3.1-0.7
		c-0.1,0.7-0.2,1.4-0.2,2.1C63.5,25.5,64.5,25.4,65.5,25.4z"/>
</g>
</svg>
